<?xml version="1.0" encoding="UTF-8"?>
<svg id="Layer_2" data-name="Layer 2" xmlns="http://www.w3.org/2000/svg" viewBox="0 0 2386.26 313.36">
  <defs>
    <style>
      .cls-1 {
        isolation: isolate;
      }

      .cls-2 {
        fill: #4553d2;
        stroke-width: 0px;
      }
    </style>
  </defs>
  <g id="Layer_1-2" data-name="Layer 1">
    <g id="Group_1056" data-name="Group 1056">
      <g id="Path_8865" data-name="Path 8865">
        <path class="cls-2" d="m270.56,6.58l-119.42,138.47L31.75,6.58H0v279.3h58.22V114.3l92.92,109.26,92.88-109.26v171.58h58.22V6.58h-31.68Z"/>
      </g>
      <g id="Group_1054" data-name="Group 1054">
        <g id="Group_1053" data-name="Group 1053">
          <g id="Path_8866" data-name="Path 8866">
            <path class="cls-2" d="m483.42,285.88c-81.8,0-142.18-61.16-142.18-139.65S401.62,6.58,483.42,6.58s142.37,61.36,142.37,139.65-60.38,139.65-142.37,139.65m0-225.73c-50.05,0-82.38,37.98-82.38,86.09s32.33,85.89,82.38,85.89,82.58-37.59,82.58-85.89-32.33-86.09-82.58-86.09"/>
          </g>
          <g id="Path_8867" data-name="Path 8867">
            <path class="cls-2" d="m811.42,13.4c73.47,22.06,115.14,99.51,93.08,172.97-13.42,44.69-48.39,79.65-93.08,93.08-16.52,4.73-33.66,6.89-50.83,6.43h-95.83V6.58h95.83c17.2-.45,34.36,1.86,50.83,6.85m-8.18,211.48c30.47-14.07,49.62-44.94,48.69-78.49.88-33.53-18.26-64.38-48.69-78.49-13.49-5.62-28.06-8.15-42.66-7.4h-37.59v171.97h37.59c14.61.7,29.19-1.9,42.66-7.59"/>
          </g>
          <g id="Path_8868" data-name="Path 8868">
            <path class="cls-2" d="m1112.35,239.33h-123.29l-17.12,46.55h-60.57L1022.17,6.78h57.65l110.62,279.12h-60.54l-17.55-46.58Zm-103.22-52.78h83.16l-41.29-111.8-41.88,111.8Z"/>
          </g>
          <g id="Path_8869" data-name="Path 8869">
            <path class="cls-2" d="m1587.14,0h22.77v160.97h-22.77l-81.64-126.48v126.46h-22.77V0h22.77l81.63,127.16V0Z"/>
          </g>
          <g id="Path_8870" data-name="Path 8870">
            <path class="cls-2" d="m1739.01,112.67h-88.75c.82,17.71,15.85,31.41,33.56,30.58,0,0,0,0,0,0,14.63.31,27.91-8.49,33.34-22.07l19.78,7.82c-9.12,21.01-30.2,34.25-53.09,33.34-30.12.23-55.88-19.08-55.88-58.86s25.75-59.08,55.88-58.86c30.12.21,55.88,19.08,55.88,58.86,0,3.08-.22,6.15-.69,9.2m-88.75-19.08h67.14c-1.43-17.32-16.2-30.47-33.57-29.89-17.44-.76-32.31,12.48-33.57,29.89"/>
          </g>
          <g id="Path_8871" data-name="Path 8871">
            <path class="cls-2" d="m1805.26,62.77h-18.84v68.75c0,6.9,3.68,8.51,9.2,8.51h9.64v20.91h-9.66c-28.51,0-31.96-6.9-31.96-29.44V62.75h-18.84v-18.14h18.84v-21.62l22.78-9.2v30.82h18.84v18.15Z"/>
          </g>
          <g id="Path_8872" data-name="Path 8872">
            <path class="cls-2" d="m1948.96,45.99h23.45l-36.1,114.97h-19.32l-22.07-75.19-22.07,75.19h-19.28l-36.14-114.97h23.46l21.84,78.87,20.46-78.87h23.46l20.46,78.87,21.84-78.87Z"/>
          </g>
          <g id="Path_8873" data-name="Path 8873">
            <path class="cls-2" d="m2034.59,162.34c-30.35,0-56.56-19.08-56.56-58.86s26.21-59.08,56.56-58.86c30.35.21,56.56,19.08,56.56,58.86s-26.22,58.86-56.56,58.86m0-98.64c-18.62-.23-34.72,11.73-34.72,39.78s16.1,39.78,34.72,39.78,34.72-11.73,34.72-39.78-16.1-39.55-34.72-39.78"/>
          </g>
          <g id="Path_8874" data-name="Path 8874">
            <path class="cls-2" d="m2169.82,44.15v20.23c-26.44,0-39.32,11.5-39.32,53.57v43.04h-22.99V45.98h22.99v21.16c6.54-15.33,22.28-24.63,38.86-22.99h.45Z"/>
          </g>
          <g id="Path_8875" data-name="Path 8875">
            <path class="cls-2" d="m2281.16,45.99l-46.91,49.21,50.35,65.53h-25.98l-38.86-50.35-13.8,14.49v36.1h-22.99V0h22.99v97.03l47.6-51.05h27.6Zm3.68,114.73v.23l-.23-.23h.23Z"/>
          </g>
          <g id="Path_8876" data-name="Path 8876">
            <path class="cls-2" d="m2311.06,125.31c2.07,12.65,13.56,18.62,26.44,18.62s26.21-5.99,26.21-19.77c0-25.75-72.44,3.42-72.44-44.84,0-33.11,34.03-34.95,46.24-34.95,11.5,0,40.93,1.61,45.99,27.13l-20.69,5.99c-2.76-11.99-12.42-16.1-25.29-16.1s-23.68,4.6-23.68,17.94c0,26.68,72.43-4.14,72.43,44.84,0,35.18-36.1,38.17-48.74,38.17-11.5,0-44.61-2.76-48.29-32.42l21.84-4.61Z"/>
          </g>
          <g id="Rectangle_2512" data-name="Rectangle 2512">
            <rect class="cls-2" x="1323.3" y="5.99" width="2.84" height="280.61"/>
          </g>
          <g id="Consulting_Growth" data-name="Consulting Growth" class="cls-1">
            <g class="cls-1">
              <path class="cls-2" d="m1520,224.89c-18.19,0-27.64,15.1-27.64,32.98s9.66,32.88,27.43,32.88c15.82,0,23.12-10.69,24.15-21.99h5.96c-1.85,15.93-13.05,27.02-30.11,27.02-19.63,0-33.29-15.41-33.29-37.92s13.46-38.02,33.5-38.02c16.44,0,27.23,10.17,29.39,23.94h-5.96c-1.64-9.56-8.84-18.91-23.43-18.91Z"/>
              <path class="cls-2" d="m1557.6,268.46c0-16.23,9.35-27.43,24.76-27.43s24.76,11.2,24.76,27.43-9.35,27.44-24.76,27.44-24.76-11.2-24.76-27.44Zm44.08,0c0-12.95-6.58-22.91-19.32-22.91s-19.32,9.97-19.32,22.91,6.58,23.02,19.32,23.02,19.32-10.07,19.32-23.02Z"/>
              <path class="cls-2" d="m1616.47,242.16h5.14v8.63h.21c3.08-4.93,8.84-9.66,18.6-9.66,9.25,0,16.75,5.24,16.75,16.44v36.99h-5.14v-36.17c0-6.47-2.88-12.84-12.84-12.84-10.58,0-17.57,8.32-17.57,15.52v33.5h-5.14v-52.4Z"/>
              <path class="cls-2" d="m1708.12,280.28c0,9.35-7.4,15.52-19.93,15.52-14.28,0-22.3-8.01-22.61-17.98h5.45c.41,7.91,6.06,13.56,17.26,13.56,9.97,0,14.49-4.83,14.49-10.89,0-8.32-8.22-9.25-16.34-11.41-10.07-2.57-18.91-5.04-18.91-14.49,0-8.22,6.47-13.46,18.08-13.46,13.77,0,19.52,7.3,20.65,15.31h-5.45c-1.13-5.24-4.42-10.89-15.21-10.89-7.6,0-12.64,2.88-12.64,8.63,0,6.99,7.3,8.22,15.93,10.38,10.48,2.77,19.21,5.45,19.21,15.72Z"/>
            </g>
            <g class="cls-1">
              <path class="cls-2" d="m1734.63,291.17c10.69,0,17.57-8.32,17.57-15.52v-33.5h5.14v52.4h-5.14v-8.53h-.21c-3.08,4.83-8.84,9.56-18.6,9.56-9.14,0-16.65-5.24-16.65-16.44v-36.99h5.14v36.17c0,6.47,2.88,12.84,12.74,12.84Z"/>
            </g>
            <g class="cls-1">
              <path class="cls-2" d="m1774.8,221.09v73.47h-5.14v-73.47h5.14Z"/>
            </g>
            <g class="cls-1">
              <path class="cls-2" d="m1790.41,242.16v-17.47h5.14v17.47h11.1v4.52h-11.1v34.73c0,7.4,1.54,9.04,7.3,9.04,1.54,0,2.36-.1,3.8-.31v4.32c-1.85.31-3.08.41-4.52.41-7.6,0-11.71-2.47-11.71-13.36v-34.83h-7.71v-4.52h7.71Z"/>
              <path class="cls-2" d="m1822.98,224.07v7.4h-7.4v-7.4h7.4Zm-1.13,18.08v52.4h-5.14v-52.4h5.14Z"/>
            </g>
            <g class="cls-1">
              <path class="cls-2" d="m1834.28,242.16h5.14v8.63h.21c3.08-4.93,8.84-9.66,18.6-9.66,9.25,0,16.75,5.24,16.75,16.44v36.99h-5.14v-36.17c0-6.47-2.88-12.84-12.84-12.84-10.58,0-17.57,8.32-17.57,15.52v33.5h-5.14v-52.4Z"/>
              <path class="cls-2" d="m1925.32,281.31h-.21c-2.98,6.37-9.56,10.99-18.5,10.99-12.12,0-22.81-8.22-22.81-25.79s10.69-25.38,22.81-25.38c8.94,0,15.41,4.52,18.5,11h.21v-10.07h5.14v49.42c0,14.8-9.04,21.89-23.02,21.89s-21.27-6.88-22.09-15.52h5.24c1.13,5.86,6.06,10.99,16.95,10.99s17.78-5.03,17.78-16.44v-11.1Zm-36.07-14.8c0,13.67,7.4,21.27,18.19,21.27,9.35,0,17.88-6.78,17.88-21.27s-8.53-20.96-17.88-20.96c-10.79,0-18.19,7.6-18.19,20.96Z"/>
              <path class="cls-2" d="m2016.76,260.65c-.62,6.68-2.67,13.97-6.27,20.24l10.69,13.67h-6.37l-7.3-9.25c-4.93,6.17-11.92,10.48-21.47,10.48-13.26,0-21.58-8.22-21.58-19.52,0-12.23,9.56-18.19,17.98-22.91-5.24-6.47-9.14-11.61-9.14-18.39,0-7.4,4.93-15.1,15.72-15.1s15.82,7.19,15.82,15.31c0,8.53-5.96,13.56-15.31,19.21l17.47,22.2c2.47-4.83,3.91-10.38,4.52-15.93h5.24Zm-30.72,30.11c8.01,0,13.97-3.9,18.19-9.66l-18.91-24.15-.1-.1c-7.71,4.42-15.52,9.14-15.52,19.01,0,9.04,6.58,14.9,16.34,14.9Zm.82-39.77c6.99-4.01,12.74-8.22,12.74-15.52,0-6.17-3.91-10.79-10.58-10.79-7.09,0-10.48,5.04-10.48,10.28,0,5.65,3.9,10.58,8.32,16.03Z"/>
              <path class="cls-2" d="m2086.21,224.89c-19.42,0-28.26,16.23-28.26,32.98s7.81,32.88,27.33,32.88c15.41,0,25.89-11.3,25.89-28.26h-24.87v-5.04h30.52v37.09h-4.01l-1.54-15.82h-.21c-3.7,9.76-11.92,17.06-25.79,17.06-21.68,0-33.29-16.24-33.29-37.92s12.74-38.02,34.22-38.02c16.44,0,26.92,8.94,29.49,22.71h-5.86c-2.16-10.89-11.2-17.67-23.63-17.67Z"/>
            </g>
            <g class="cls-1">
              <path class="cls-2" d="m2134.5,242.16v10.89h.21c2.47-6.88,8.01-11.92,15.31-11.92,1.85,0,3.08.1,4.21.31v4.93c-.92-.21-2.26-.31-2.98-.31-9.25,0-16.75,7.5-16.75,17.88v30.62h-5.14v-52.4h5.14Z"/>
            </g>
            <g class="cls-1">
              <path class="cls-2" d="m2156.89,268.46c0-16.23,9.35-27.43,24.76-27.43s24.76,11.2,24.76,27.43-9.35,27.44-24.76,27.44-24.76-11.2-24.76-27.44Zm44.08,0c0-12.95-6.58-22.91-19.32-22.91s-19.32,9.97-19.32,22.91,6.58,23.02,19.32,23.02,19.32-10.07,19.32-23.02Z"/>
            </g>
            <g class="cls-1">
              <path class="cls-2" d="m2215.15,242.16l14.08,46.44h.21l12.95-46.44h6.06l13.05,46.44h.21l14.08-46.44h5.45l-16.65,52.4h-6.06l-13.05-46.03h-.21l-13.05,46.03h-5.96l-16.65-52.4h5.55Z"/>
            </g>
            <g class="cls-1">
              <path class="cls-2" d="m2293.65,242.16v-17.47h5.14v17.47h11.1v4.52h-11.1v34.73c0,7.4,1.54,9.04,7.29,9.04,1.54,0,2.36-.1,3.8-.31v4.32c-1.85.31-3.08.41-4.52.41-7.6,0-11.71-2.47-11.71-13.36v-34.83h-7.71v-4.52h7.71Z"/>
            </g>
            <g class="cls-1">
              <path class="cls-2" d="m2342.45,245.55c-10.58,0-17.57,8.32-17.57,15.52v33.5h-5.14v-73.47h5.14v29.7h.21c3.08-4.93,8.84-9.66,18.6-9.66,9.25,0,16.75,5.24,16.75,16.44v36.99h-5.14v-36.17c0-6.47-2.88-12.84-12.84-12.84Z"/>
            </g>
          </g>
        </g>
      </g>
    </g>
  </g>
</svg>